<?xml version="1.0" encoding="UTF-8" standalone="no"?>
<!-- Creator: CorelDRAW -->

<svg
   xmlns:dc="http://purl.org/dc/elements/1.1/"
   xmlns:cc="http://creativecommons.org/ns#"
   xmlns:rdf="http://www.w3.org/1999/02/22-rdf-syntax-ns#"
   xmlns:svg="http://www.w3.org/2000/svg"
   xmlns="http://www.w3.org/2000/svg"
   xmlns:sodipodi="http://sodipodi.sourceforge.net/DTD/sodipodi-0.dtd"
   xmlns:inkscape="http://www.inkscape.org/namespaces/inkscape"
   xml:space="preserve"
   width="6in"
   height="6in"
   style="shape-rendering:geometricPrecision; text-rendering:geometricPrecision; image-rendering:optimizeQuality; fill-rule:evenodd; clip-rule:evenodd"
   viewBox="0 0 6 6"
   version="1.1"
   id="svg5951"
   sodipodi:docname="pixel_guard_LaserCut.svg"
   inkscape:version="0.92.1 r15371"><metadata
     id="metadata5955"><rdf:RDF><cc:Work
         rdf:about=""><dc:format>image/svg+xml</dc:format><dc:type
           rdf:resource="http://purl.org/dc/dcmitype/StillImage" /></cc:Work></rdf:RDF></metadata><sodipodi:namedview
     pagecolor="#ffffff"
     bordercolor="#666666"
     borderopacity="1"
     objecttolerance="10"
     gridtolerance="10"
     guidetolerance="10"
     inkscape:pageopacity="0"
     inkscape:pageshadow="2"
     inkscape:window-width="1440"
     inkscape:window-height="868"
     id="namedview5953"
     showgrid="false"
     inkscape:zoom="0.40972222"
     inkscape:cx="-207.45763"
     inkscape:cy="288"
     inkscape:window-x="0"
     inkscape:window-y="0"
     inkscape:window-maximized="0"
     inkscape:current-layer="svg5951" /><defs
     id="defs5881"><style
       type="text/css"
       id="style5879"><![CDATA[
    .str1 {stroke:#1F1A17;stroke-width:0.003;stroke-linecap:round;stroke-linejoin:round}
    .str0 {stroke:black;stroke-width:0.003;stroke-linecap:round;stroke-linejoin:round}
    .fil1 {fill:none}
    .fil0 {fill:none;fill-rule:nonzero}
   ]]></style></defs><g
     id="Layer_x0020_1"
     style="stroke:#000000;stroke-opacity:1;stroke-width:0.00393701;stroke-miterlimit:4;stroke-dasharray:none"><metadata
       id="CorelCorpID_0Corel-Layer" /><g
       id="_91543720"
       style="stroke:#000000;stroke-opacity:1;stroke-width:0.00393701;stroke-miterlimit:4;stroke-dasharray:none"><path
         id="_93055696"
         class="fil0 str0"
         d="M1.65251 1.8555l0.25 0c0.0137677,0 0.025,-0.0112323 0.025,-0.025l0 -0.25c0,-0.0137677 -0.0112323,-0.025 -0.025,-0.025l-0.25 0c-0.0137677,0 -0.025,0.0112323 -0.025,0.025l0 0.25c0,0.0137677 0.0112323,0.025 0.025,0.025z"
         style="stroke:#000000;stroke-opacity:1;stroke-width:0.00393701;stroke-miterlimit:4;stroke-dasharray:none" /><path
         id="_93858152"
         class="fil0 str0"
         d="M1.65251 2.2055l0.25 0c0.0137677,0 0.025,-0.0112323 0.025,-0.025l0 -0.25c0,-0.0137677 -0.0112323,-0.025 -0.025,-0.025l-0.25 0c-0.0137677,0 -0.025,0.0112323 -0.025,0.025l0 0.25c0,0.0137677 0.0112323,0.025 0.025,0.025z"
         style="stroke:#000000;stroke-opacity:1;stroke-width:0.00393701;stroke-miterlimit:4;stroke-dasharray:none" /><path
         id="_93599928"
         class="fil0 str0"
         d="M1.65251 2.5555l0.25 0c0.0137677,0 0.025,-0.0112323 0.025,-0.025l0 -0.25c0,-0.0137677 -0.0112323,-0.025 -0.025,-0.025l-0.25 0c-0.0137677,0 -0.025,0.0112323 -0.025,0.025l0 0.25c0,0.0137677 0.0112323,0.025 0.025,0.025z"
         style="stroke:#000000;stroke-opacity:1;stroke-width:0.00393701;stroke-miterlimit:4;stroke-dasharray:none" /><path
         id="_93599880"
         class="fil0 str0"
         d="M1.65251 2.9055l0.25 0c0.0137677,0 0.025,-0.0112323 0.025,-0.025l0 -0.25c0,-0.0137677 -0.0112323,-0.025 -0.025,-0.025l-0.25 0c-0.0137677,0 -0.025,0.0112323 -0.025,0.025l0 0.25c0,0.0137677 0.0112323,0.025 0.025,0.025z"
         style="stroke:#000000;stroke-opacity:1;stroke-width:0.00393701;stroke-miterlimit:4;stroke-dasharray:none" /><path
         id="_91694832"
         class="fil0 str0"
         d="M1.65251 3.2555l0.25 0c0.0137677,0 0.025,-0.0112323 0.025,-0.025l0 -0.25c0,-0.0137677 -0.0112323,-0.025 -0.025,-0.025l-0.25 0c-0.0137677,0 -0.025,0.0112323 -0.025,0.025l0 0.25c0,0.0137677 0.0112323,0.025 0.025,0.025z"
         style="stroke:#000000;stroke-opacity:1;stroke-width:0.00393701;stroke-miterlimit:4;stroke-dasharray:none" /><path
         id="_91694784"
         class="fil0 str0"
         d="M1.65251 3.6055l0.25 0c0.0137677,0 0.025,-0.0112323 0.025,-0.025l0 -0.25c0,-0.0137677 -0.0112323,-0.025 -0.025,-0.025l-0.25 0c-0.0137677,0 -0.025,0.0112323 -0.025,0.025l0 0.25c0,0.0137677 0.0112323,0.025 0.025,0.025z"
         style="stroke:#000000;stroke-opacity:1;stroke-width:0.00393701;stroke-miterlimit:4;stroke-dasharray:none" /><path
         id="_92705032"
         class="fil0 str0"
         d="M1.65251 3.9555l0.25 0c0.0137677,0 0.025,-0.0112323 0.025,-0.025l0 -0.25c0,-0.0137677 -0.0112323,-0.025 -0.025,-0.025l-0.25 0c-0.0137677,0 -0.025,0.0112323 -0.025,0.025l0 0.25c0,0.0137677 0.0112323,0.025 0.025,0.025z"
         style="stroke:#000000;stroke-opacity:1;stroke-width:0.00393701;stroke-miterlimit:4;stroke-dasharray:none" /><path
         id="_92704984"
         class="fil0 str0"
         d="M1.65251 4.3055l0.25 0c0.0137677,0 0.025,-0.0112323 0.025,-0.025l0 -0.25c0,-0.0137677 -0.0112323,-0.025 -0.025,-0.025l-0.25 0c-0.0137677,0 -0.025,0.0112323 -0.025,0.025l0 0.25c0,0.0137677 0.0112323,0.025 0.025,0.025z"
         style="stroke:#000000;stroke-opacity:1;stroke-width:0.00393701;stroke-miterlimit:4;stroke-dasharray:none" /><path
         id="_93588912"
         class="fil0 str0"
         d="M2.00251 1.8555l0.25 0c0.0137677,0 0.025,-0.0112323 0.025,-0.025l0 -0.25c0,-0.0137677 -0.0112323,-0.025 -0.025,-0.025l-0.25 0c-0.0137677,0 -0.025,0.0112323 -0.025,0.025l0 0.25c0,0.0137677 0.0112323,0.025 0.025,0.025z"
         style="stroke:#000000;stroke-opacity:1;stroke-width:0.00393701;stroke-miterlimit:4;stroke-dasharray:none" /><path
         id="_94184920"
         class="fil0 str0"
         d="M2.00251 2.2055l0.25 0c0.0137677,0 0.025,-0.0112323 0.025,-0.025l0 -0.25c0,-0.0137677 -0.0112323,-0.025 -0.025,-0.025l-0.25 0c-0.0137677,0 -0.025,0.0112323 -0.025,0.025l0 0.25c0,0.0137677 0.0112323,0.025 0.025,0.025z"
         style="stroke:#000000;stroke-opacity:1;stroke-width:0.00393701;stroke-miterlimit:4;stroke-dasharray:none" /><path
         id="_95453464"
         class="fil0 str0"
         d="M2.00251 2.5555l0.25 0c0.0137677,0 0.025,-0.0112323 0.025,-0.025l0 -0.25c0,-0.0137677 -0.0112323,-0.025 -0.025,-0.025l-0.25 0c-0.0137677,0 -0.025,0.0112323 -0.025,0.025l0 0.25c0,0.0137677 0.0112323,0.025 0.025,0.025z"
         style="stroke:#000000;stroke-opacity:1;stroke-width:0.00393701;stroke-miterlimit:4;stroke-dasharray:none" /><path
         id="_95453048"
         class="fil0 str0"
         d="M2.00251 2.9055l0.25 0c0.0137677,0 0.025,-0.0112323 0.025,-0.025l0 -0.25c0,-0.0137677 -0.0112323,-0.025 -0.025,-0.025l-0.25 0c-0.0137677,0 -0.025,0.0112323 -0.025,0.025l0 0.25c0,0.0137677 0.0112323,0.025 0.025,0.025z"
         style="stroke:#000000;stroke-opacity:1;stroke-width:0.00393701;stroke-miterlimit:4;stroke-dasharray:none" /><path
         id="_92925800"
         class="fil0 str0"
         d="M2.00251 3.2555l0.25 0c0.0137677,0 0.025,-0.0112323 0.025,-0.025l0 -0.25c0,-0.0137677 -0.0112323,-0.025 -0.025,-0.025l-0.25 0c-0.0137677,0 -0.025,0.0112323 -0.025,0.025l0 0.25c0,0.0137677 0.0112323,0.025 0.025,0.025z"
         style="stroke:#000000;stroke-opacity:1;stroke-width:0.00393701;stroke-miterlimit:4;stroke-dasharray:none" /><path
         id="_93702352"
         class="fil0 str0"
         d="M2.00251 3.6055l0.25 0c0.0137677,0 0.025,-0.0112323 0.025,-0.025l0 -0.25c0,-0.0137677 -0.0112323,-0.025 -0.025,-0.025l-0.25 0c-0.0137677,0 -0.025,0.0112323 -0.025,0.025l0 0.25c0,0.0137677 0.0112323,0.025 0.025,0.025z"
         style="stroke:#000000;stroke-opacity:1;stroke-width:0.00393701;stroke-miterlimit:4;stroke-dasharray:none" /><path
         id="_92132360"
         class="fil0 str0"
         d="M2.00251 3.9555l0.25 0c0.0137677,0 0.025,-0.0112323 0.025,-0.025l0 -0.25c0,-0.0137677 -0.0112323,-0.025 -0.025,-0.025l-0.25 0c-0.0137677,0 -0.025,0.0112323 -0.025,0.025l0 0.25c0,0.0137677 0.0112323,0.025 0.025,0.025z"
         style="stroke:#000000;stroke-opacity:1;stroke-width:0.00393701;stroke-miterlimit:4;stroke-dasharray:none" /><path
         id="_91700424"
         class="fil0 str0"
         d="M2.00251 4.3055l0.25 0c0.0137677,0 0.025,-0.0112323 0.025,-0.025l0 -0.25c0,-0.0137677 -0.0112323,-0.025 -0.025,-0.025l-0.25 0c-0.0137677,0 -0.025,0.0112323 -0.025,0.025l0 0.25c0,0.0137677 0.0112323,0.025 0.025,0.025z"
         style="stroke:#000000;stroke-opacity:1;stroke-width:0.00393701;stroke-miterlimit:4;stroke-dasharray:none" /><path
         id="_93858504"
         class="fil0 str0"
         d="M2.35251 1.8555l0.25 0c0.0137677,0 0.025,-0.0112323 0.025,-0.025l0 -0.25c0,-0.0137677 -0.0112323,-0.025 -0.025,-0.025l-0.25 0c-0.0137677,0 -0.025,0.0112323 -0.025,0.025l0 0.25c0,0.0137677 0.0112323,0.025 0.025,0.025z"
         style="stroke:#000000;stroke-opacity:1;stroke-width:0.00393701;stroke-miterlimit:4;stroke-dasharray:none" /><path
         id="_91645176"
         class="fil0 str0"
         d="M2.35251 2.2055l0.25 0c0.0137677,0 0.025,-0.0112323 0.025,-0.025l0 -0.25c0,-0.0137677 -0.0112323,-0.025 -0.025,-0.025l-0.25 0c-0.0137677,0 -0.025,0.0112323 -0.025,0.025l0 0.25c0,0.0137677 0.0112323,0.025 0.025,0.025z"
         style="stroke:#000000;stroke-opacity:1;stroke-width:0.00393701;stroke-miterlimit:4;stroke-dasharray:none" /><path
         id="_94170128"
         class="fil0 str0"
         d="M2.35251 2.5555l0.25 0c0.0137677,0 0.025,-0.0112323 0.025,-0.025l0 -0.25c0,-0.0137677 -0.0112323,-0.025 -0.025,-0.025l-0.25 0c-0.0137677,0 -0.025,0.0112323 -0.025,0.025l0 0.25c0,0.0137677 0.0112323,0.025 0.025,0.025z"
         style="stroke:#000000;stroke-opacity:1;stroke-width:0.00393701;stroke-miterlimit:4;stroke-dasharray:none" /><path
         id="_94170344"
         class="fil0 str0"
         d="M2.35251 2.9055l0.25 0c0.0137677,0 0.025,-0.0112323 0.025,-0.025l0 -0.25c0,-0.0137677 -0.0112323,-0.025 -0.025,-0.025l-0.25 0c-0.0137677,0 -0.025,0.0112323 -0.025,0.025l0 0.25c0,0.0137677 0.0112323,0.025 0.025,0.025z"
         style="stroke:#000000;stroke-opacity:1;stroke-width:0.00393701;stroke-miterlimit:4;stroke-dasharray:none" /><path
         id="_94083288"
         class="fil0 str0"
         d="M2.35251 3.2555l0.25 0c0.0137677,0 0.025,-0.0112323 0.025,-0.025l0 -0.25c0,-0.0137677 -0.0112323,-0.025 -0.025,-0.025l-0.25 0c-0.0137677,0 -0.025,0.0112323 -0.025,0.025l0 0.25c0,0.0137677 0.0112323,0.025 0.025,0.025z"
         style="stroke:#000000;stroke-opacity:1;stroke-width:0.00393701;stroke-miterlimit:4;stroke-dasharray:none" /><path
         id="_92667256"
         class="fil0 str0"
         d="M2.35251 3.6055l0.25 0c0.0137677,0 0.025,-0.0112323 0.025,-0.025l0 -0.25c0,-0.0137677 -0.0112323,-0.025 -0.025,-0.025l-0.25 0c-0.0137677,0 -0.025,0.0112323 -0.025,0.025l0 0.25c0,0.0137677 0.0112323,0.025 0.025,0.025z"
         style="stroke:#000000;stroke-opacity:1;stroke-width:0.00393701;stroke-miterlimit:4;stroke-dasharray:none" /><path
         id="_94083760"
         class="fil0 str0"
         d="M2.35251 3.9555l0.25 0c0.0137677,0 0.025,-0.0112323 0.025,-0.025l0 -0.25c0,-0.0137677 -0.0112323,-0.025 -0.025,-0.025l-0.25 0c-0.0137677,0 -0.025,0.0112323 -0.025,0.025l0 0.25c0,0.0137677 0.0112323,0.025 0.025,0.025z"
         style="stroke:#000000;stroke-opacity:1;stroke-width:0.00393701;stroke-miterlimit:4;stroke-dasharray:none" /><path
         id="_93162264"
         class="fil0 str0"
         d="M2.35251 4.3055l0.25 0c0.0137677,0 0.025,-0.0112323 0.025,-0.025l0 -0.25c0,-0.0137677 -0.0112323,-0.025 -0.025,-0.025l-0.25 0c-0.0137677,0 -0.025,0.0112323 -0.025,0.025l0 0.25c0,0.0137677 0.0112323,0.025 0.025,0.025z"
         style="stroke:#000000;stroke-opacity:1;stroke-width:0.00393701;stroke-miterlimit:4;stroke-dasharray:none" /><path
         id="_93050000"
         class="fil0 str0"
         d="M2.70251 1.8555l0.25 0c0.0137677,0 0.025,-0.0112323 0.025,-0.025l0 -0.25c0,-0.0137677 -0.0112323,-0.025 -0.025,-0.025l-0.25 0c-0.0137677,0 -0.025,0.0112323 -0.025,0.025l0 0.25c0,0.0137677 0.0112323,0.025 0.025,0.025z"
         style="stroke:#000000;stroke-opacity:1;stroke-width:0.00393701;stroke-miterlimit:4;stroke-dasharray:none" /><path
         id="_93594392"
         class="fil0 str0"
         d="M2.70251 2.2055l0.25 0c0.0137677,0 0.025,-0.0112323 0.025,-0.025l0 -0.25c0,-0.0137677 -0.0112323,-0.025 -0.025,-0.025l-0.25 0c-0.0137677,0 -0.025,0.0112323 -0.025,0.025l0 0.25c0,0.0137677 0.0112323,0.025 0.025,0.025z"
         style="stroke:#000000;stroke-opacity:1;stroke-width:0.00393701;stroke-miterlimit:4;stroke-dasharray:none" /><path
         id="_52978240"
         class="fil0 str0"
         d="M2.70251 2.5555l0.25 0c0.0137677,0 0.025,-0.0112323 0.025,-0.025l0 -0.25c0,-0.0137677 -0.0112323,-0.025 -0.025,-0.025l-0.25 0c-0.0137677,0 -0.025,0.0112323 -0.025,0.025l0 0.25c0,0.0137677 0.0112323,0.025 0.025,0.025z"
         style="stroke:#000000;stroke-opacity:1;stroke-width:0.00393701;stroke-miterlimit:4;stroke-dasharray:none" /><path
         id="_93573664"
         class="fil0 str0"
         d="M2.70251 2.9055l0.25 0c0.0137677,0 0.025,-0.0112323 0.025,-0.025l0 -0.25c0,-0.0137677 -0.0112323,-0.025 -0.025,-0.025l-0.25 0c-0.0137677,0 -0.025,0.0112323 -0.025,0.025l0 0.25c0,0.0137677 0.0112323,0.025 0.025,0.025z"
         style="stroke:#000000;stroke-opacity:1;stroke-width:0.00393701;stroke-miterlimit:4;stroke-dasharray:none" /><path
         id="_93519656"
         class="fil0 str0"
         d="M2.70251 3.2555l0.25 0c0.0137677,0 0.025,-0.0112323 0.025,-0.025l0 -0.25c0,-0.0137677 -0.0112323,-0.025 -0.025,-0.025l-0.25 0c-0.0137677,0 -0.025,0.0112323 -0.025,0.025l0 0.25c0,0.0137677 0.0112323,0.025 0.025,0.025z"
         style="stroke:#000000;stroke-opacity:1;stroke-width:0.00393701;stroke-miterlimit:4;stroke-dasharray:none" /><path
         id="_93598456"
         class="fil0 str0"
         d="M2.70251 3.6055l0.25 0c0.0137677,0 0.025,-0.0112323 0.025,-0.025l0 -0.25c0,-0.0137677 -0.0112323,-0.025 -0.025,-0.025l-0.25 0c-0.0137677,0 -0.025,0.0112323 -0.025,0.025l0 0.25c0,0.0137677 0.0112323,0.025 0.025,0.025z"
         style="stroke:#000000;stroke-opacity:1;stroke-width:0.00393701;stroke-miterlimit:4;stroke-dasharray:none" /><path
         id="_92985160"
         class="fil0 str0"
         d="M2.70251 3.9555l0.25 0c0.0137677,0 0.025,-0.0112323 0.025,-0.025l0 -0.25c0,-0.0137677 -0.0112323,-0.025 -0.025,-0.025l-0.25 0c-0.0137677,0 -0.025,0.0112323 -0.025,0.025l0 0.25c0,0.0137677 0.0112323,0.025 0.025,0.025z"
         style="stroke:#000000;stroke-opacity:1;stroke-width:0.00393701;stroke-miterlimit:4;stroke-dasharray:none" /><path
         id="_93573544"
         class="fil0 str0"
         d="M2.70251 4.3055l0.25 0c0.0137677,0 0.025,-0.0112323 0.025,-0.025l0 -0.25c0,-0.0137677 -0.0112323,-0.025 -0.025,-0.025l-0.25 0c-0.0137677,0 -0.025,0.0112323 -0.025,0.025l0 0.25c0,0.0137677 0.0112323,0.025 0.025,0.025z"
         style="stroke:#000000;stroke-opacity:1;stroke-width:0.00393701;stroke-miterlimit:4;stroke-dasharray:none" /><path
         id="_92984504"
         class="fil0 str0"
         d="M3.05251 1.8555l0.25 0c0.0137677,0 0.025,-0.0112323 0.025,-0.025l0 -0.25c0,-0.0137677 -0.0112323,-0.025 -0.025,-0.025l-0.25 0c-0.0137677,0 -0.025,0.0112323 -0.025,0.025l0 0.25c0,0.0137677 0.0112323,0.025 0.025,0.025z"
         style="stroke:#000000;stroke-opacity:1;stroke-width:0.00393701;stroke-miterlimit:4;stroke-dasharray:none" /><path
         id="_93574032"
         class="fil0 str0"
         d="M3.05251 2.2055l0.25 0c0.0137677,0 0.025,-0.0112323 0.025,-0.025l0 -0.25c0,-0.0137677 -0.0112323,-0.025 -0.025,-0.025l-0.25 0c-0.0137677,0 -0.025,0.0112323 -0.025,0.025l0 0.25c0,0.0137677 0.0112323,0.025 0.025,0.025z"
         style="stroke:#000000;stroke-opacity:1;stroke-width:0.00393701;stroke-miterlimit:4;stroke-dasharray:none" /><path
         id="_91543400"
         class="fil0 str0"
         d="M3.05251 2.5555l0.25 0c0.0137677,0 0.025,-0.0112323 0.025,-0.025l0 -0.25c0,-0.0137677 -0.0112323,-0.025 -0.025,-0.025l-0.25 0c-0.0137677,0 -0.025,0.0112323 -0.025,0.025l0 0.25c0,0.0137677 0.0112323,0.025 0.025,0.025z"
         style="stroke:#000000;stroke-opacity:1;stroke-width:0.00393701;stroke-miterlimit:4;stroke-dasharray:none" /><path
         id="_92702328"
         class="fil0 str0"
         d="M3.05251 2.9055l0.25 0c0.0137677,0 0.025,-0.0112323 0.025,-0.025l0 -0.25c0,-0.0137677 -0.0112323,-0.025 -0.025,-0.025l-0.25 0c-0.0137677,0 -0.025,0.0112323 -0.025,0.025l0 0.25c0,0.0137677 0.0112323,0.025 0.025,0.025z"
         style="stroke:#000000;stroke-opacity:1;stroke-width:0.00393701;stroke-miterlimit:4;stroke-dasharray:none" /><path
         id="_92707264"
         class="fil0 str0"
         d="M3.05251 3.2555l0.25 0c0.0137677,0 0.025,-0.0112323 0.025,-0.025l0 -0.25c0,-0.0137677 -0.0112323,-0.025 -0.025,-0.025l-0.25 0c-0.0137677,0 -0.025,0.0112323 -0.025,0.025l0 0.25c0,0.0137677 0.0112323,0.025 0.025,0.025z"
         style="stroke:#000000;stroke-opacity:1;stroke-width:0.00393701;stroke-miterlimit:4;stroke-dasharray:none" /><path
         id="_94165136"
         class="fil0 str0"
         d="M3.05251 3.6055l0.25 0c0.0137677,0 0.025,-0.0112323 0.025,-0.025l0 -0.25c0,-0.0137677 -0.0112323,-0.025 -0.025,-0.025l-0.25 0c-0.0137677,0 -0.025,0.0112323 -0.025,0.025l0 0.25c0,0.0137677 0.0112323,0.025 0.025,0.025z"
         style="stroke:#000000;stroke-opacity:1;stroke-width:0.00393701;stroke-miterlimit:4;stroke-dasharray:none" /><path
         id="_95454912"
         class="fil0 str0"
         d="M3.05251 3.9555l0.25 0c0.0137677,0 0.025,-0.0112323 0.025,-0.025l0 -0.25c0,-0.0137677 -0.0112323,-0.025 -0.025,-0.025l-0.25 0c-0.0137677,0 -0.025,0.0112323 -0.025,0.025l0 0.25c0,0.0137677 0.0112323,0.025 0.025,0.025z"
         style="stroke:#000000;stroke-opacity:1;stroke-width:0.00393701;stroke-miterlimit:4;stroke-dasharray:none" /><path
         id="_92693320"
         class="fil0 str0"
         d="M3.05251 4.3055l0.25 0c0.0137677,0 0.025,-0.0112323 0.025,-0.025l0 -0.25c0,-0.0137677 -0.0112323,-0.025 -0.025,-0.025l-0.25 0c-0.0137677,0 -0.025,0.0112323 -0.025,0.025l0 0.25c0,0.0137677 0.0112323,0.025 0.025,0.025z"
         style="stroke:#000000;stroke-opacity:1;stroke-width:0.00393701;stroke-miterlimit:4;stroke-dasharray:none" /><path
         id="_92592304"
         class="fil0 str0"
         d="M3.40251 1.8555l0.25 0c0.0137677,0 0.025,-0.0112323 0.025,-0.025l0 -0.25c0,-0.0137677 -0.0112323,-0.025 -0.025,-0.025l-0.25 0c-0.0137677,0 -0.025,0.0112323 -0.025,0.025l0 0.25c0,0.0137677 0.0112323,0.025 0.025,0.025z"
         style="stroke:#000000;stroke-opacity:1;stroke-width:0.00393701;stroke-miterlimit:4;stroke-dasharray:none" /><path
         id="_92591832"
         class="fil0 str0"
         d="M3.40251 2.2055l0.25 0c0.0137677,0 0.025,-0.0112323 0.025,-0.025l0 -0.25c0,-0.0137677 -0.0112323,-0.025 -0.025,-0.025l-0.25 0c-0.0137677,0 -0.025,0.0112323 -0.025,0.025l0 0.25c0,0.0137677 0.0112323,0.025 0.025,0.025z"
         style="stroke:#000000;stroke-opacity:1;stroke-width:0.00393701;stroke-miterlimit:4;stroke-dasharray:none" /><path
         id="_92695352"
         class="fil0 str0"
         d="M3.40251 2.5555l0.25 0c0.0137677,0 0.025,-0.0112323 0.025,-0.025l0 -0.25c0,-0.0137677 -0.0112323,-0.025 -0.025,-0.025l-0.25 0c-0.0137677,0 -0.025,0.0112323 -0.025,0.025l0 0.25c0,0.0137677 0.0112323,0.025 0.025,0.025z"
         style="stroke:#000000;stroke-opacity:1;stroke-width:0.00393701;stroke-miterlimit:4;stroke-dasharray:none" /><path
         id="_92694880"
         class="fil0 str0"
         d="M3.40251 2.9055l0.25 0c0.0137677,0 0.025,-0.0112323 0.025,-0.025l0 -0.25c0,-0.0137677 -0.0112323,-0.025 -0.025,-0.025l-0.25 0c-0.0137677,0 -0.025,0.0112323 -0.025,0.025l0 0.25c0,0.0137677 0.0112323,0.025 0.025,0.025z"
         style="stroke:#000000;stroke-opacity:1;stroke-width:0.00393701;stroke-miterlimit:4;stroke-dasharray:none" /><path
         id="_92694608"
         class="fil0 str0"
         d="M3.40251 3.2555l0.25 0c0.0137677,0 0.025,-0.0112323 0.025,-0.025l0 -0.25c0,-0.0137677 -0.0112323,-0.025 -0.025,-0.025l-0.25 0c-0.0137677,0 -0.025,0.0112323 -0.025,0.025l0 0.25c0,0.0137677 0.0112323,0.025 0.025,0.025z"
         style="stroke:#000000;stroke-opacity:1;stroke-width:0.00393701;stroke-miterlimit:4;stroke-dasharray:none" /><path
         id="_93157280"
         class="fil0 str0"
         d="M3.40251 3.6055l0.25 0c0.0137677,0 0.025,-0.0112323 0.025,-0.025l0 -0.25c0,-0.0137677 -0.0112323,-0.025 -0.025,-0.025l-0.25 0c-0.0137677,0 -0.025,0.0112323 -0.025,0.025l0 0.25c0,0.0137677 0.0112323,0.025 0.025,0.025z"
         style="stroke:#000000;stroke-opacity:1;stroke-width:0.00393701;stroke-miterlimit:4;stroke-dasharray:none" /><path
         id="_90834688"
         class="fil0 str0"
         d="M3.40251 3.9555l0.25 0c0.0137677,0 0.025,-0.0112323 0.025,-0.025l0 -0.25c0,-0.0137677 -0.0112323,-0.025 -0.025,-0.025l-0.25 0c-0.0137677,0 -0.025,0.0112323 -0.025,0.025l0 0.25c0,0.0137677 0.0112323,0.025 0.025,0.025z"
         style="stroke:#000000;stroke-opacity:1;stroke-width:0.00393701;stroke-miterlimit:4;stroke-dasharray:none" /><path
         id="_92124096"
         class="fil0 str0"
         d="M3.40251 4.3055l0.25 0c0.0137677,0 0.025,-0.0112323 0.025,-0.025l0 -0.25c0,-0.0137677 -0.0112323,-0.025 -0.025,-0.025l-0.25 0c-0.0137677,0 -0.025,0.0112323 -0.025,0.025l0 0.25c0,0.0137677 0.0112323,0.025 0.025,0.025z"
         style="stroke:#000000;stroke-opacity:1;stroke-width:0.00393701;stroke-miterlimit:4;stroke-dasharray:none" /><path
         id="_91664696"
         class="fil0 str0"
         d="M3.75251 1.8555l0.25 0c0.0137677,0 0.025,-0.0112323 0.025,-0.025l0 -0.25c0,-0.0137677 -0.0112323,-0.025 -0.025,-0.025l-0.25 0c-0.0137677,0 -0.025,0.0112323 -0.025,0.025l0 0.25c0,0.0137677 0.0112323,0.025 0.025,0.025z"
         style="stroke:#000000;stroke-opacity:1;stroke-width:0.00393701;stroke-miterlimit:4;stroke-dasharray:none" /><path
         id="_92133640"
         class="fil0 str0"
         d="M3.75251 2.2055l0.25 0c0.0137677,0 0.025,-0.0112323 0.025,-0.025l0 -0.25c0,-0.0137677 -0.0112323,-0.025 -0.025,-0.025l-0.25 0c-0.0137677,0 -0.025,0.0112323 -0.025,0.025l0 0.25c0,0.0137677 0.0112323,0.025 0.025,0.025z"
         style="stroke:#000000;stroke-opacity:1;stroke-width:0.00393701;stroke-miterlimit:4;stroke-dasharray:none" /><path
         id="_92134256"
         class="fil0 str0"
         d="M3.75251 2.5555l0.25 0c0.0137677,0 0.025,-0.0112323 0.025,-0.025l0 -0.25c0,-0.0137677 -0.0112323,-0.025 -0.025,-0.025l-0.25 0c-0.0137677,0 -0.025,0.0112323 -0.025,0.025l0 0.25c0,0.0137677 0.0112323,0.025 0.025,0.025z"
         style="stroke:#000000;stroke-opacity:1;stroke-width:0.00393701;stroke-miterlimit:4;stroke-dasharray:none" /><path
         id="_91668712"
         class="fil0 str0"
         d="M3.75251 2.9055l0.25 0c0.0137677,0 0.025,-0.0112323 0.025,-0.025l0 -0.25c0,-0.0137677 -0.0112323,-0.025 -0.025,-0.025l-0.25 0c-0.0137677,0 -0.025,0.0112323 -0.025,0.025l0 0.25c0,0.0137677 0.0112323,0.025 0.025,0.025z"
         style="stroke:#000000;stroke-opacity:1;stroke-width:0.00393701;stroke-miterlimit:4;stroke-dasharray:none" /><path
         id="_91667728"
         class="fil0 str0"
         d="M3.75251 3.2555l0.25 0c0.0137677,0 0.025,-0.0112323 0.025,-0.025l0 -0.25c0,-0.0137677 -0.0112323,-0.025 -0.025,-0.025l-0.25 0c-0.0137677,0 -0.025,0.0112323 -0.025,0.025l0 0.25c0,0.0137677 0.0112323,0.025 0.025,0.025z"
         style="stroke:#000000;stroke-opacity:1;stroke-width:0.00393701;stroke-miterlimit:4;stroke-dasharray:none" /><path
         id="_93601056"
         class="fil0 str0"
         d="M3.75251 3.6055l0.25 0c0.0137677,0 0.025,-0.0112323 0.025,-0.025l0 -0.25c0,-0.0137677 -0.0112323,-0.025 -0.025,-0.025l-0.25 0c-0.0137677,0 -0.025,0.0112323 -0.025,0.025l0 0.25c0,0.0137677 0.0112323,0.025 0.025,0.025z"
         style="stroke:#000000;stroke-opacity:1;stroke-width:0.00393701;stroke-miterlimit:4;stroke-dasharray:none" /><path
         id="_94169440"
         class="fil0 str0"
         d="M3.75251 3.9555l0.25 0c0.0137677,0 0.025,-0.0112323 0.025,-0.025l0 -0.25c0,-0.0137677 -0.0112323,-0.025 -0.025,-0.025l-0.25 0c-0.0137677,0 -0.025,0.0112323 -0.025,0.025l0 0.25c0,0.0137677 0.0112323,0.025 0.025,0.025z"
         style="stroke:#000000;stroke-opacity:1;stroke-width:0.00393701;stroke-miterlimit:4;stroke-dasharray:none" /><path
         id="_94158936"
         class="fil0 str0"
         d="M3.75251 4.3055l0.25 0c0.0137677,0 0.025,-0.0112323 0.025,-0.025l0 -0.25c0,-0.0137677 -0.0112323,-0.025 -0.025,-0.025l-0.25 0c-0.0137677,0 -0.025,0.0112323 -0.025,0.025l0 0.25c0,0.0137677 0.0112323,0.025 0.025,0.025z"
         style="stroke:#000000;stroke-opacity:1;stroke-width:0.00393701;stroke-miterlimit:4;stroke-dasharray:none" /><path
         id="_92134856"
         class="fil0 str0"
         d="M4.10251 1.8555l0.25 0c0.0137677,0 0.025,-0.0112323 0.025,-0.025l0 -0.25c0,-0.0137677 -0.0112323,-0.025 -0.025,-0.025l-0.25 0c-0.0137677,0 -0.025,0.0112323 -0.025,0.025l0 0.25c0,0.0137677 0.0112323,0.025 0.025,0.025z"
         style="stroke:#000000;stroke-opacity:1;stroke-width:0.00393701;stroke-miterlimit:4;stroke-dasharray:none" /><path
         id="_92701544"
         class="fil0 str0"
         d="M4.10251 2.2055l0.25 0c0.0137677,0 0.025,-0.0112323 0.025,-0.025l0 -0.25c0,-0.0137677 -0.0112323,-0.025 -0.025,-0.025l-0.25 0c-0.0137677,0 -0.025,0.0112323 -0.025,0.025l0 0.25c0,0.0137677 0.0112323,0.025 0.025,0.025z"
         style="stroke:#000000;stroke-opacity:1;stroke-width:0.00393701;stroke-miterlimit:4;stroke-dasharray:none" /><path
         id="_92696448"
         class="fil0 str0"
         d="M4.10251 2.5555l0.25 0c0.0137677,0 0.025,-0.0112323 0.025,-0.025l0 -0.25c0,-0.0137677 -0.0112323,-0.025 -0.025,-0.025l-0.25 0c-0.0137677,0 -0.025,0.0112323 -0.025,0.025l0 0.25c0,0.0137677 0.0112323,0.025 0.025,0.025z"
         style="stroke:#000000;stroke-opacity:1;stroke-width:0.00393701;stroke-miterlimit:4;stroke-dasharray:none" /><path
         id="_92131464"
         class="fil0 str0"
         d="M4.10251 2.9055l0.25 0c0.0137677,0 0.025,-0.0112323 0.025,-0.025l0 -0.25c0,-0.0137677 -0.0112323,-0.025 -0.025,-0.025l-0.25 0c-0.0137677,0 -0.025,0.0112323 -0.025,0.025l0 0.25c0,0.0137677 0.0112323,0.025 0.025,0.025z"
         style="stroke:#000000;stroke-opacity:1;stroke-width:0.00393701;stroke-miterlimit:4;stroke-dasharray:none" /><path
         id="_92701816"
         class="fil0 str0"
         d="M4.10251 3.2555l0.25 0c0.0137677,0 0.025,-0.0112323 0.025,-0.025l0 -0.25c0,-0.0137677 -0.0112323,-0.025 -0.025,-0.025l-0.25 0c-0.0137677,0 -0.025,0.0112323 -0.025,0.025l0 0.25c0,0.0137677 0.0112323,0.025 0.025,0.025z"
         style="stroke:#000000;stroke-opacity:1;stroke-width:0.00393701;stroke-miterlimit:4;stroke-dasharray:none" /><path
         id="_93157160"
         class="fil0 str0"
         d="M4.10251 3.6055l0.25 0c0.0137677,0 0.025,-0.0112323 0.025,-0.025l0 -0.25c0,-0.0137677 -0.0112323,-0.025 -0.025,-0.025l-0.25 0c-0.0137677,0 -0.025,0.0112323 -0.025,0.025l0 0.25c0,0.0137677 0.0112323,0.025 0.025,0.025z"
         style="stroke:#000000;stroke-opacity:1;stroke-width:0.00393701;stroke-miterlimit:4;stroke-dasharray:none" /><path
         id="_94168256"
         class="fil0 str0"
         d="M4.10251 3.9555l0.25 0c0.0137677,0 0.025,-0.0112323 0.025,-0.025l0 -0.25c0,-0.0137677 -0.0112323,-0.025 -0.025,-0.025l-0.25 0c-0.0137677,0 -0.025,0.0112323 -0.025,0.025l0 0.25c0,0.0137677 0.0112323,0.025 0.025,0.025z"
         style="stroke:#000000;stroke-opacity:1;stroke-width:0.00393701;stroke-miterlimit:4;stroke-dasharray:none" /><path
         id="_93565128"
         class="fil0 str0"
         d="M4.10251 4.3055l0.25 0c0.0137677,0 0.025,-0.0112323 0.025,-0.025l0 -0.25c0,-0.0137677 -0.0112323,-0.025 -0.025,-0.025l-0.25 0c-0.0137677,0 -0.025,0.0112323 -0.025,0.025l0 0.25c0,0.0137677 0.0112323,0.025 0.025,0.025z"
         style="stroke:#000000;stroke-opacity:1;stroke-width:0.00393701;stroke-miterlimit:4;stroke-dasharray:none" /><rect
         id="_91544072"
         class="fil1 str1"
         x="1.55251"
         y="1.4805"
         width="2.9"
         height="2.9"
         style="stroke:#000000;stroke-opacity:1;stroke-width:0.00393701;stroke-miterlimit:4;stroke-dasharray:none" /></g></g></svg>